<svg xmlns="http://www.w3.org/2000/svg" 
	width="21" height="21" fill="none" viewBox="0 0 21 21">
		<path fill="#000" 
			d="M0 0h1.615v1.615H0zm0 1.615h1.615V3.23H0zM0 3.23h1.615v1.615H0zm0 1.616h1.615v1.615H0zm0 1.616h1.615v1.615H0zm0 1.615h1.615v1.615H0zm0 1.615h1.615v1.615H0zm0 1.616h1.615v1.615H0zm0 1.615h1.615v1.615H0zm0 1.615h1.615v1.615H0zm0 1.616h1.615v1.615H0zm0 1.616h1.615v1.615H0zm0 1.615h1.615V21H0zM17.77 0v1.615h-1.616V0zm-1.616 0v1.615h-1.615V0zm-1.615 0v1.615h-1.615V0zm-1.616 0v1.615h-1.615V0zm-1.615 0v1.615H9.693V0zM9.692 0v1.615H8.077V0zM8.077 0v1.615H6.462V0zM6.462 0v1.615H4.847V0zM4.846 0v1.615H3.231V0zM3.23 0v1.615H1.617V0zm16.155 1.616V3.23H17.77V1.616zM4.847 3.23v1.615H3.232V3.23zm-.001-1.615V3.23H3.231V1.615zm0 3.231V6.46H3.23V4.846zM16.154 3.23v1.616H14.54V3.23zm0-1.615V3.23h-1.615V1.615zm-.001 3.231V6.46H14.54V4.846zM12.924 3.23v1.615h-1.615V3.23zm-.001-1.615V3.23h-1.615V1.615zm0 3.231V6.46h-1.615V4.846zm3.231 1.616v1.615h-1.615V6.462zm-1.616 0v1.615h-1.615V6.462zm-1.615 0v1.615h-1.615V6.462zm-1.615 0v1.615H9.693V6.462zm-1.616 0v1.615H8.077V6.462zm-1.615 0v1.615H6.462V6.462zm-1.616 0v1.615H4.846V6.462zm-1.615 0v1.615H3.231V6.462zm12.923 4.845v1.615h-1.615v-1.615zm-1.616.001v1.615h-1.615v-1.615z"/>
		<path fill="#000" 
			d="M14.538 11.308v1.615h-1.615v-1.615zm-1.615 0v1.614h-1.615v-1.615zm-1.616 0v1.615H9.692v-1.615zm-1.615-.001v1.615H8.077v-1.615zm-1.616.001v1.615H6.461v-1.615zm-1.615 0v1.615H4.846v-1.615zm-1.615-.001v1.615H3.23v-1.615zm12.924 1.616v1.615h-1.616v-1.615zm-12.924 0v1.615H3.231v-1.615z"/>
		<path fill="#000" 
			d="M17.77 14.538v1.615h-1.616v-1.615zm-12.924 0v1.615H3.231v-1.615zm12.924 1.616v1.615h-1.615v-1.615zm-12.924 0v1.615H3.231v-1.615zm0 1.616v1.614H3.23V17.77zm12.923 0v1.614h-1.615V17.77zm1.615 1.615V21H17.77v-1.615zm-1.614-.001V21h-1.616v-1.615zm-1.616.001V21h-1.615v-1.615zm-1.616 0V21h-1.615v-1.615zm-1.615 0V21h-1.615v-1.615zm-1.616 0V21H9.692v-1.615zm-1.615 0V21H8.077v-1.615zm-1.615 0V21H6.462v-1.615zm-1.616 0V21H4.846v-1.615zm-1.615 0V21H3.231v-1.615zm-1.616 0V21H1.617v-1.615zM21 21h-1.615v-1.615H21zm0-1.615h-1.615V17.77H21zm0-1.616h-1.615v-1.615H21z"/>
			<path fill="#000" 
				d="M21 16.155h-1.615V14.54H21zm0-1.617h-1.615v-1.615H21zm0-1.615h-1.615v-1.615H21zm0-1.616h-1.615V9.692H21z"/>
			<path fill="#000" 
				d="M21 9.693h-1.615V8.078H21zm0-1.616h-1.615V6.462H21zm0-1.615h-1.615V4.847H21zm0-1.617h-1.615V3.23H21z"/>
</svg>