<svg xmlns="http://www.w3.org/2000/svg" style="display: none;">
  <defs>
    <!-- Сердце: контур -->
    <symbol id="heart-contour" viewBox="0 0 39 35">
      <path 
	  fill="var(--heart-contour-fill, #000)" 
	  d="M12 6H9v3h3zm3 0h-3v3h3zM9 9H6v3h3zm0 3H6v3h3zm0 3H6v3h3zm9-9h-3v3h3zm-6 12H9v3h3zm3 3h-3v3h3zm3 3h-3v3h3zm9-18h3v3h-3zm-3 0h3v3h-3zm6 3h3v3h-3zm0 3h3v3h-3zm0 3h3v3h-3zm-9-9h3v3h-3zm6 12h3v3h-3zm-3 3h3v3h-3zm-3 3h3v3h-3zm0 3h-3v3h3zm0-18h-3v3h3z" />
    </symbol>

    <!-- Сердце: основное тело -->
    <symbol id="heart-main-body" viewBox="0 0 39 35">
      <path 
	  fill="var(--heart-main-body-fill, transparent)" 
	  d="M12 9H9v3h3zm3 3h-3v3h3zm3-3h-3v3h3zm-6 6H9v3h3zm3 0h-3v3h3zm0 3h-3v3h3zm3-6h-3v3h3zm0 9h-3v3h3zm0-3h-3v3h3zm9-9h3v3h-3zm-3 0h3v3h-3zm3 3h3v3h-3zm-3 0h3v3h-3zm-3-3h3v3h-3zm6 6h3v3h-3zm-3 0h3v3h-3zm0 3h3v3h-3zm-3-6h3v3h-3zm0 9h3v3h-3zm0-3h3v3h-3zm0 3h-3v3h3zm0 3h-3v3h3z" />
    </symbol>

    <!-- Сердце: ядро -->
    <symbol id="heart-core" viewBox="0 0 39 35">
      <path 
	  fill="var(--heart-core-fill, transparent)" 
	  d="M15 12h-3v3h3zm0-6h-3v3h3zm0 3h-3v3h3zm0-6h-3v3h3zm0 6h3v3h-3zm-3 0H9v3h3z" />
    </symbol>

    <!-- Сердце: искры -->
    <symbol id="heart-sparks" viewBox="0 0 39 35">
      <path 
	  fill="var(--heart-spark-fill, transparent)" 
	  d="M36 13h3v3h-3zm-9 14h3v3h-3zm-9 6h3v3h-3zm-9-6h3v3H9zM24 0h3v3h-3zm9 3h3v3h-3zM3 3h3v3H3zm9-3h3v3h-3zM0 13h3v3H0z" />
    </symbol>
  </defs>
</svg>
